<svg class="header__socials__link" viewBox="0 0 40 40"
	xmlns="http://www.w3.org/2000/svg" id="linkedin">
	<path d="M7.84253 0.0100098C3.53385 0.0100098 0.00744629 3.53633 0.00744629 7.84509V32.1587C0.00744629 36.4674 3.53377 39.9925 7.84253 39.9925H32.1562C36.4649 39.9925 39.99 36.4674 39.99 32.1587V7.84509C39.99 3.53641 36.4649 0.0100098 32.1562 0.0100098H7.84253ZM9.81317 6.60793C11.8791 6.60793 13.1516 7.96417 13.1909 9.74693C13.1909 11.4903 11.879 12.8847 9.77321 12.8847H9.73445C7.70785 12.8847 6.39797 11.4904 6.39797 9.74693C6.39797 7.96421 7.74749 6.60793 9.81313 6.60793H9.81317ZM27.6164 14.9403C31.5895 14.9403 34.568 17.5372 34.568 23.1178V33.5357H28.5298V23.8162C28.5298 21.3738 27.656 19.7075 25.4708 19.7075C23.8026 19.7075 22.8083 20.8306 22.3718 21.9156C22.2123 22.3038 22.1731 22.8459 22.1731 23.3889V33.5357H16.135C16.135 33.5357 16.2142 17.0712 16.135 15.3664H22.1743V17.9394C22.9767 16.7014 24.412 14.9403 27.6164 14.9403V14.9403ZM6.75413 15.3677H12.7922V33.5358H6.75413V15.3677V15.3677Z" />
</svg>