<svg version="1.1" viewBox="0 0 55 20"
	xmlns="http://www.w3.org/2000/svg" id="logo">
	<g transform="translate(-24.916 -14.837)">
		<g transform="matrix(1.0885 0 0 1.0882 -6.3865 -1.6363)" stroke-width=".26458">
			<path id="logo_D" d="m28.758 33.516v-18.378h2.89q1.5579 0 2.2465 0.71216 0.69991 0.71216 0.72249 2.3432 0.03387 2.1824 0.04516 4.1581t0 3.9513q-0.01129 1.9642-0.04516 4.1466-0.02258 1.6426-0.72249 2.3547-0.69991 0.71216-2.2691 0.71216zm1.4901-1.3784h1.3772q0.77893 0 1.1289-0.36757 0.34996-0.37905 0.36124-1.1716 0.03387-1.5736 0.04515-3.1358 0.01129-1.5736 0.01129-3.1358 0-1.5736-0.01129-3.1358-0.01129-1.5736-0.04515-3.1473-0.01129-0.79256-0.36124-1.1601-0.34996-0.36756-1.1063-0.36756h-1.3998z" stroke-width=".26689" />
			<path id="logo_S" d="m39.57 33.516q-1.5579 0-2.2465-0.68862-0.67733-0.69991-0.74507-2.2916-0.01129-0.69991-0.01129-1.2756 0-0.57573 0.01129-1.1515 0.01129-0.58702 0.03387-1.2869h1.4337q-0.04516 1.0047-0.04516 1.9981t0.04516 1.9417q0.03387 0.76764 0.38382 1.1176 0.34996 0.34996 1.1289 0.34996 0.74507 0 1.0724-0.34996t0.37253-1.1176q0.03387-0.63218 0.04516-1.1289 0.01129-0.508 0-1.0273-0.01129-0.53058-0.04516-1.2418-0.02258-0.83538-0.23707-1.3998-0.2032-0.57573-0.85796-0.74507l-1.174-0.3048q-0.86924-0.21449-1.3321-0.64347-0.46284-0.44027-0.64347-1.1515-0.16933-0.7112-0.2032-1.7498-0.01129-0.73378-0.01129-1.603 0.01129-0.86924 0.02258-1.682 0.03387-1.0499 0.32738-1.6933 0.29351-0.65476 0.93698-0.94827 0.65476-0.3048 1.7272-0.3048 1.4901 0 2.1562 0.68862 0.66604 0.68862 0.72249 2.2804 0.02258 0.62089 0.01129 1.5353 0 0.90311-0.03387 1.9191h-1.445q0.03387-0.92569 0.03387-1.8401 0.01129-0.92569-0.02258-1.8401-0.02258-0.76764-0.37253-1.1176-0.33867-0.34996-1.0724-0.34996-0.76764 0-1.095 0.34996-0.32738 0.34996-0.37253 1.1176-0.04516 0.85796-0.04516 1.7385 0.01129 0.86924 0.04516 1.7498 0.02258 1.0047 0.23707 1.5127t0.89182 0.66604l1.1063 0.27093q0.89182 0.2032 1.3547 0.65476 0.47413 0.45156 0.65476 1.174 0.18062 0.7112 0.2032 1.7159 0.02258 0.69991 0.02258 1.1853 0 0.47413-0.01129 0.92569 0 0.45156-0.02258 1.0612-0.05644 1.5917-0.73378 2.2916-0.67733 0.68862-2.2013 0.68862z" fill="var(--primary-color)" />
		</g>
		<g transform="scale(.96252 1.0389)" stroke-width=".2798">
			<path d="m81.539 26.492q-0.291 0-0.49246-0.17908-0.19027-0.19027-0.19027-0.50365t0.19027-0.49246q0.20146-0.17908 0.49246-0.17908t0.48126 0.17908q0.20146 0.17908 0.20146 0.49246t-0.20146 0.50365q-0.19027 0.17908-0.48126 0.17908zm0.54842 1.2423v4.7791q0 0.24623 0.25742 0.32457 0.26861 0.07834 0.67153 0.07834h0.01119v0.50365h-2.8764v-0.50365h0.01119q0.40292 0 0.66034-0.07834 0.26861-0.07835 0.26861-0.32457v-3.7382q0-0.24623-0.20146-0.33577t-0.62676-0.16788l-0.12311-0.02238v-0.51484zm-2.6387 5.6856h-2.8988v-0.50365h0.03358q0.15669 0 0.34696-0.01119t0.32457-0.03358q0.13431-0.03358 0.13431-0.06715l-2.1153-2.3839v-0.05596l2.0146-1.9251q0-0.08954-0.15669-0.12311-0.15669-0.04477-0.36934-0.05596-0.21265-0.02238-0.38054-0.02238h-0.04477v-0.50365h2.7757v0.50365h-0.02238q-0.22384 0-0.44769 0.05596t-0.4365 0.17908q-0.20146 0.12311-0.40292 0.31338l-1.7348 1.6676 0.02238-0.48126 2.2496 2.5182q0.16788 0.17908 0.33577 0.26861 0.16788 0.08954 0.35815 0.12311 0.19027 0.03358 0.39173 0.03358h0.02238zm-4.4657-8.2263v7.6107q0 0.03358 0.13431 0.06715 0.1455 0.02238 0.33577 0.03358 0.19027 0.01119 0.33577 0.01119h0.03358v0.50365h-2.7757v-0.50365h0.02238q0.40292 0 0.66034-0.07834 0.25742-0.07835 0.25742-0.32457v-6.2788q0-0.16788-0.08954-0.25742t-0.26861-0.1455q-0.17908-0.05596-0.47007-0.10073l-0.12311-0.02238v-0.51484zm-3.6779 6.7489q0-0.23504-0.12312-0.39173-0.12311-0.15669-0.33577-0.25742-0.20146-0.11192-0.47007-0.17908-0.25742-0.07834-0.54842-0.1455-0.34696-0.08954-0.69392-0.20146-0.33577-0.11192-0.61557-0.291-0.2798-0.19027-0.44769-0.47007-0.16788-0.291-0.16788-0.72749 0-0.49246 0.24623-0.8618 0.24623-0.38054 0.70511-0.582 0.47007-0.21265 1.1304-0.21265 0.51484 0 0.89538 0.07834 0.39173 0.07835 0.64915 0.20146 0.25742 0.11192 0.38053 0.21265v1.22h-0.96253v-1.0521q0.12311 0 0.20146 0.04477 0.08954 0.03358 0.13431 0.11192 0.04477 0.06715 0.05596 0.16788t-0.02238 0.22384q-0.12311-0.19027-0.32457-0.31338-0.20146-0.13431-0.45888-0.19027-0.24623-0.06715-0.54842-0.06715-0.58199 0-0.87299 0.25742-0.291 0.24623-0.291 0.63796 0 0.24623 0.12311 0.41411 0.13431 0.16788 0.34696 0.2798 0.22384 0.10073 0.49246 0.17908 0.2798 0.07834 0.582 0.15669 0.33577 0.07835 0.67153 0.19027 0.33577 0.11192 0.60438 0.291 0.2798 0.17908 0.4365 0.45888 0.16788 0.2798 0.16788 0.70511 0 0.48126-0.26861 0.87299-0.26861 0.38054-0.77226 0.60438-0.49246 0.22384-1.1976 0.22384-0.53722 0-0.97372-0.08954-0.4253-0.07834-0.76107-0.21265-0.33577-0.1455-0.60438-0.31338v-1.2871h0.98491v1.4214q-0.16788-0.10073-0.25742-0.20146t-0.12312-0.20146-0.02238-0.20146q0.01119-0.11192 0.04477-0.22384 0.19027 0.23504 0.44769 0.38053 0.25742 0.1455 0.5708 0.22384 0.31338 0.06715 0.68272 0.06715 0.40292 0 0.69392-0.11192t0.44769-0.32457q0.16788-0.21265 0.16788-0.51484zm-5.1439-6.7489v7.3197q0 0.24623 0.25742 0.32457t0.66034 0.07834h0.02238v0.50365h-2.8764v-0.50365h0.02238q0.40292 0 0.66034-0.07834 0.25742-0.07835 0.25742-0.32457v-6.2788q0-0.16788-0.08954-0.25742t-0.26861-0.1455q-0.17908-0.05596-0.47007-0.10073l-0.12312-0.02238v-0.51484zm-4.0848 4.7791v0.55961q-0.55961 0.05596-0.99611 0.1455t-0.76107 0.21265q-0.31338 0.12311-0.51484 0.291-0.20146 0.15669-0.30219 0.36934t-0.10073 0.47007q0 0.26861 0.12311 0.47007t0.34696 0.31338 0.51484 0.11192q0.39173 0 0.69392-0.19027 0.31338-0.19027 0.54842-0.53723 0.24623-0.34696 0.4253-0.81703v0.79465q-0.16788 0.41411-0.44769 0.72749-0.2798 0.30219-0.64915 0.47007-0.36934 0.16788-0.83942 0.16788-0.48126 0-0.88418-0.17908-0.39173-0.17908-0.63796-0.51484-0.23504-0.34696-0.23504-0.80584t0.23504-0.79465q0.23504-0.34696 0.70511-0.59319t1.164-0.40292q0.69392-0.16788 1.6117-0.26861zm-0.19027 3.4472v-1.1976l-0.11192-0.03358v-2.6861q0-0.47007-0.13431-0.73868-0.12311-0.2798-0.36934-0.39173-0.24623-0.11192-0.60438-0.11192-0.54842 0-0.90657 0.22384-0.34696 0.22384-0.55961 0.52603-0.02238-0.13431 0.01119-0.24623 0.03358-0.11192 0.10073-0.20146t0.15669-0.15669q0.10073-0.06715 0.21265-0.11192v1.1528h-0.97372v-1.1528q0.16788-0.13431 0.44769-0.291 0.291-0.15669 0.69392-0.26861t0.88418-0.11192q0.39173 0 0.74988 0.08954t0.64915 0.30219q0.291 0.20146 0.45888 0.54842 0.16788 0.33577 0.16788 0.83942v3.1114q0 0.15669 0.12311 0.24623t0.32457 0.12311q0.21265 0.03358 0.48126 0.03358v0.50365zm-3.9912 0h-2.8988v-0.50365h0.03358q0.15669 0 0.34696-0.01119t0.32457-0.03358q0.13431-0.03358 0.13431-0.06715l-2.1153-2.3839v-0.05596l2.0146-1.9251q0-0.08954-0.15669-0.12311-0.15669-0.04477-0.36934-0.05596-0.21265-0.02238-0.38054-0.02238h-0.04477v-0.50365h2.7757v0.50365h-0.02238q-0.22384 0-0.44769 0.05596t-0.4365 0.17908q-0.20146 0.12311-0.40292 0.31338l-1.7348 1.6676 0.02238-0.48126 2.2496 2.5182q0.16788 0.17908 0.33577 0.26861 0.16788 0.08954 0.35815 0.12311 0.19027 0.03358 0.39173 0.03358h0.02238zm-4.4657-8.2263v7.6107q0 0.03358 0.13431 0.06715 0.1455 0.02238 0.33577 0.03358 0.19027 0.01119 0.33577 0.01119h0.03358v0.50365h-2.7757v-0.50365h0.02238q0.40292 0 0.66034-0.07834 0.25742-0.07835 0.25742-0.32457v-6.2788q0-0.16788-0.08954-0.25742t-0.26861-0.1455q-0.17908-0.05596-0.47007-0.10073l-0.12311-0.02238v-0.51484zm-5.563 7.6667q0.50365 0 0.8618-0.1455 0.36934-0.1455 0.5708-0.44769 0.20146-0.31338 0.20146-0.78345 0-0.4365-0.17908-0.72749-0.17908-0.291-0.48126-0.47007-0.30219-0.19027-0.69392-0.31338-0.38054-0.13431-0.79465-0.24623-0.44769-0.12311-0.89538-0.2798-0.4365-0.15669-0.79465-0.41411t-0.5708-0.64915-0.21265-0.98491q0-0.62676 0.31338-1.0745 0.32457-0.45888 0.85061-0.70511 0.53723-0.25742 1.1752-0.25742 0.50365 0 0.95134 0.1455 0.44769 0.13431 0.82822 0.49246 0.38054 0.35815 0.64915 1.0297l-0.40292 0.06715 0.16788-1.6229h0.63796v2.0817h-0.7163q-0.17908-0.48126-0.48126-0.81703-0.291-0.34696-0.68272-0.52603-0.39173-0.19027-0.85061-0.19027-0.47007 0-0.80584 0.15669t-0.51484 0.44769q-0.17908 0.2798-0.17908 0.68272 0 0.38054 0.17908 0.63796 0.17908 0.24623 0.48126 0.41411t0.69392 0.291q0.39173 0.11192 0.80584 0.22384 0.47007 0.12311 0.91776 0.291 0.44769 0.15669 0.80584 0.41411 0.36934 0.25742 0.58199 0.66034t0.21265 1.0073q0 0.72749-0.35815 1.2423-0.34696 0.51484-0.94014 0.78345-0.582 0.25742-1.2871 0.25742-0.63796 0-1.2311-0.20146-0.582-0.21265-1.0409-0.66034t-0.7163-1.1976l0.51484 0.04477-0.16788 1.9027h-0.68272v-2.4735h0.7163q0.19027 0.55961 0.55961 0.99611t0.88418 0.68272q0.51484 0.23504 1.1192 0.23504zm19.698-13.431q0 0.53723 0.13431 0.96253 0.1455 0.4253 0.40292 0.7163t0.60438 0.44769q0.34696 0.1455 0.74988 0.1455 0.45888 0 0.78345-0.17908 0.33577-0.17908 0.55961-0.4365 0.23504-0.26861 0.39173-0.52603l0.52603 0.47007q-0.21265 0.35815-0.52603 0.66034t-0.74988 0.48126q-0.4253 0.16788-1.0073 0.16788-0.81703 0-1.4774-0.35815-0.64915-0.35815-1.0297-1.0185t-0.38054-1.5557q0-0.88418 0.35815-1.5445 0.35815-0.67153 0.96253-1.0521 0.61557-0.38054 1.3654-0.38054 0.61557 0 1.0745 0.20146 0.47007 0.20146 0.78345 0.60438 0.32457 0.39173 0.49246 0.99611t0.16788 1.4102h-4.3873v-0.62676h3.6375l-0.31338 0.24623q-0.01119-0.55961-0.10073-0.97372t-0.26861-0.68272q-0.17908-0.26861-0.44769-0.40292t-0.63796-0.13431q-0.34696 0-0.64915 0.16788-0.30219 0.15669-0.53722 0.47007-0.22384 0.30219-0.35815 0.73868-0.12311 0.4365-0.12311 0.98491zm-8.3218 2.798v-0.50365h0.02238q0.26861 0 0.47007-0.03358 0.21265-0.03358 0.32457-0.12311 0.12311-0.08954 0.12311-0.24623v-3.7382q0-0.16788-0.08954-0.24623-0.08954-0.08954-0.2798-0.1455-0.17908-0.05596-0.45888-0.11192l-0.11192-0.02238v-0.51484h1.8355v1.1864l0.10073 0.12311v3.7606q0 0.03358 0.13431 0.06715 0.13431 0.02238 0.32457 0.03358 0.19027 0.01119 0.34696 0.01119h0.03358v0.50365zm6.5362 0h-2.7757v-0.50365h0.02238q0.15669 0 0.34696-0.01119t0.32457-0.03358q0.1455-0.03358 0.1455-0.06715v-3.2569q0-0.4253-0.08954-0.69392t-0.30219-0.39173q-0.20146-0.13431-0.55961-0.13431-0.36934 0-0.70511 0.1455t-0.63796 0.4365q-0.291 0.2798-0.55961 0.70511v-0.76107q0.30219-0.41411 0.60438-0.68272 0.31338-0.2798 0.67153-0.41411t0.79465-0.13431q0.53723 0 0.92895 0.19027 0.40292 0.19027 0.62676 0.59319 0.22384 0.39173 0.22384 1.0185v3.089q0 0.15669 0.11192 0.24623 0.12311 0.08954 0.32457 0.12311 0.21265 0.03358 0.48126 0.03358h0.02238zm-8.7296-3.4472v0.55961q-0.55961 0.05596-0.99611 0.1455t-0.76107 0.21265q-0.31338 0.12311-0.51484 0.291-0.20146 0.15669-0.30219 0.36934t-0.10073 0.47007q0 0.26861 0.12311 0.47007t0.34696 0.31338 0.51484 0.11192q0.39173 0 0.69392-0.19027 0.31338-0.19027 0.54842-0.53723 0.24623-0.34696 0.4253-0.81703v0.79465q-0.16788 0.41411-0.44769 0.72749-0.2798 0.30219-0.64915 0.47007-0.36934 0.16788-0.83942 0.16788-0.48126 0-0.88418-0.17908-0.39173-0.17908-0.63796-0.51484-0.23504-0.34696-0.23504-0.80584t0.23504-0.79465q0.23504-0.34696 0.70511-0.59319t1.164-0.40292q0.69392-0.16788 1.6117-0.26861zm-0.19027 3.4472v-1.1976l-0.11192-0.03358v-2.6861q0-0.47007-0.13431-0.73868-0.12311-0.2798-0.36934-0.39173-0.24623-0.11192-0.60438-0.11192-0.54842 0-0.90657 0.22384-0.34696 0.22384-0.55961 0.52603-0.02238-0.13431 0.01119-0.24623 0.03358-0.11192 0.10073-0.20146t0.15669-0.15669q0.10073-0.06715 0.21265-0.11192v1.1528h-0.97372v-1.1528q0.16788-0.13431 0.44769-0.291 0.291-0.15669 0.69392-0.26861t0.88418-0.11192q0.39173 0 0.74988 0.08954t0.64915 0.30219q0.291 0.20146 0.45888 0.54842 0.16788 0.33577 0.16788 0.83942v3.1114q0 0.15669 0.12311 0.24623t0.32457 0.12311q0.21265 0.03358 0.48126 0.03358v0.50365zm-12.272-7.4204v-0.52603h3.4248q0.94014 0 1.7012 0.2798 0.77226 0.26861 1.3319 0.78345 0.55961 0.51484 0.8618 1.2535 0.30219 0.72749 0.30219 1.6341t-0.30219 1.6453q-0.30219 0.72749-0.8618 1.2647-0.55961 0.52603-1.3319 0.80584-0.76107 0.2798-1.7012 0.2798h-3.4248v-0.52603h0.13431q0.41411 0 0.68272-0.07834 0.26861-0.07835 0.26861-0.32457v-6.0886q0-0.22384-0.26861-0.31338t-0.68272-0.08954zm3.4248 0.13431h-1.3095v6.6258h1.3095q0.7163 0 1.2759-0.22384 0.5708-0.22384 0.97372-0.64915 0.40292-0.4365 0.61557-1.0521 0.21265-0.62676 0.21265-1.4102t-0.21265-1.399q-0.21265-0.61557-0.61557-1.0297-0.40292-0.4253-0.97372-0.63796-0.55961-0.22384-1.2759-0.22384z" />
		</g>
	</g>
</svg>